<?xml version="1.0" encoding="UTF-8"?>
<svg xmlns="http://www.w3.org/2000/svg" version="1.1" height="80" width="80">
 <defs>
  <linearGradient id="hicg_overlay_grad" gradientUnits="userSpaceOnUse" x1="39.9995" y1="5.1816" x2="39.9995" y2="58.8019">
   <stop offset="0" style="stop-color:#FFFFFF"/>
   <stop offset="1" style="stop-color:#000000"/>
  </linearGradient>
  <filter id="hicg_drop_shadow">
    <feOffset in="SourceAlpha" dx="0" dy="4"/>
    <feGaussianBlur stdDeviation="4"/>
	<feColorMatrix type="matrix" values="1 0 0 0 0  0 1 0 0 0  0 0 1 0 0  0 0 0 0.5 0" result="shadow"/>
    <feBlend in="SourceGraphic" in2="shadow" mode="normal"/>
  </filter>
 </defs>
 <g>
  <path id="hicg_background" fill="#0d97bc" d="M79,40c0,28.893-10.105,39-39,39S1,68.893,1,40C1,11.106,11.105,1,40,1S79,11.106,79,40z"/>
  <path id="hicg_highlight" fill="#fff" opacity="0.25" d="M39.999,1C11.105,1,1,11.106,1,40c0,28.893,10.105,39,38.999,39   C68.896,79,79,68.893,79,40C79,11.106,68.896,1,39.999,1z M39.999,78.025C11.57,78.025,1.976,68.43,1.976,40   c0-28.429,9.595-38.024,38.023-38.024c28.43,0,38.024,9.596,38.024,38.024C78.023,68.43,68.429,78.025,39.999,78.025z"/>
  <path id="hicg_overlay" opacity="0.4" fill="url(#hicg_overlay_grad)" d="M78.977,40c0,28.893-10.1,39-38.977,39S1.023,68.893,1.023,40c0-28.894,10.1-39,38.977-39S78.977,11.106,78.977,40z"/>
 </g>
<g xmlns:rdf="http://www.w3.org/1999/02/22-rdf-syntax-ns#" xmlns:cc="http://creativecommons.org/ns#" xmlns:dc="http://purl.org/dc/elements/1.1/" transform="translate(13, 13) scale(0.25471698113208)" filter="url(#hicg_drop_shadow)">
  <metadata xmlns="http://www.w3.org/2000/svg" xmlns:rdf="http://www.w3.org/1999/02/22-rdf-syntax-ns#" xmlns:cc="http://creativecommons.org/ns#" xmlns:dc="http://purl.org/dc/elements/1.1/" id="metadata17">
    <rdf:RDF>
      <cc:Work rdf:about="">
        <dc:format>image/svg+xml</dc:format>
        <dc:type rdf:resource="http://purl.org/dc/dcmitype/StillImage"/>
        <dc:title/>
      </cc:Work>
    </rdf:RDF>
  </metadata>
  <defs xmlns="http://www.w3.org/2000/svg" id="defs15"/>
  <radialGradient xmlns="http://www.w3.org/2000/svg" cx="44.534775" cy="49.503849" r="80" fx="44.534775" fy="49.503849" id="BallShader" gradientUnits="userSpaceOnUse" gradientTransform="matrix(0.59943085,0.48342913,-0.39100149,0.48482465,31.134144,0.10035102)">
    <stop id="stop5" style="stop-color:#ffffff;stop-opacity:1" offset="0"/>
    <stop id="stop7" style="stop-color:#ededed;stop-opacity:1" offset="0.60000002"/>
    <stop id="stop9" style="stop-color:#afafaf;stop-opacity:1" offset="1"/>
  </radialGradient>
  <circle xmlns="http://www.w3.org/2000/svg" cx="50" cy="50" r="50" transform="matrix(2.1259843,0,0,2.1259843,0,1.2042929e-4)" id="circle11" style="fill:url(#BallShader)"/>
  <g xmlns="http://www.w3.org/2000/svg" transform="translate(-0.01785808,-849.80666)" id="text3778" style="font-size:144px;font-style:normal;font-variant:normal;font-weight:normal;font-stretch:normal;line-height:125%;letter-spacing:0px;word-spacing:0px">
    <path d="m 115.3,913.4 c 3.035,0.3721 4.557,1.5 4.567,3.384 0.009,1.884 -1.129,4.884 -3.415,9 l -7.632,14.33 -0.6336,-0.648 -7.085,-14.54 c -2.041,-4.017 -3.035,-6.855 -2.984,-8.514 0.05094,-1.659 1.555,-2.661 4.511,-3.006 0.4319,-0.5219 0.6479,-1.314 0.648,-2.376 -7e-5,-1.062 -0.2161,-1.854 -0.648,-2.376 -2.463,0.0751 -4.593,0.1411 -6.39,0.198 -1.797,0.0571 -4.035,0.0871 -6.714,0.09 -2.766,-0.003 -5.046,-0.0329 -6.84,-0.09 -1.794,-0.0569 -3.786,-0.1229 -5.976,-0.198 -0.426,0.5221 -0.618,1.314 -0.576,2.376 0.04196,1.062 0.282,1.854 0.72,2.376 2.914,0.2851 5.113,1.299 6.597,3.042 1.483,1.743 3.34,5.097 5.571,10.06 l 12.14,25.75 -16.08,32.72 h -0.68 l -26.37,-60.05 c -1.905,-4.02 -2.516,-6.844 -1.834,-8.471 0.6819,-1.626 3.242,-2.643 7.681,-3.049 0.432,-0.5219 0.648,-1.314 0.648,-2.376 -3.1e-5,-1.062 -0.216,-1.854 -0.648,-2.376 -3.276,0.0751 -6.084,0.1411 -8.424,0.198 -2.34,0.0571 -4.86,0.0871 -7.56,0.09 -2.721,-0.003 -5.091,-0.0329 -7.11,-0.09 -2.019,-0.0569 -4.641,-0.1229 -7.866,-0.198 -0.426,0.5221 -0.618,1.314 -0.576,2.376 0.042,1.062 0.282,1.854 0.72,2.376 3.853,0.2221 6.478,1.218 7.875,2.988 1.396,1.77 3.067,5.142 5.013,10.12 l 31.32,73.73 c 0.426,1.083 0.9059,1.905 1.44,2.466 0.5339,0.561 1.158,0.843 1.872,0.846 0.7829,0 1.449,-0.285 1.998,-0.846 0.5489,-0.561 1.035,-1.383 1.458,-2.466 l 21.24,-41.8 19.37,41.8 c 0.7655,2.177 1.869,3.281 3.312,3.312 0.7739,0 1.422,-0.285 1.944,-0.846 0.5219,-0.561 1.026,-1.383 1.512,-2.466 l 34.08,-73.44 c 1.306,-3.434 2.852,-6.365 4.637,-8.791 1.785,-2.426 4.958,-3.96 9.518,-4.601 0.4318,-0.5219 0.6478,-1.314 0.648,-2.376 -1.5e-4,-1.062 -0.2162,-1.854 -0.648,-2.376 -2.841,0.0751 -5.259,0.1411 -7.254,0.198 -1.995,0.0571 -3.801,0.0871 -5.418,0.09 -1.62,-0.003 -3.564,-0.0329 -5.832,-0.09 -2.268,-0.0569 -5.076,-0.1229 -8.424,-0.198 -0.4321,0.5221 -0.6481,1.314 -0.648,2.376 -1.2e-4,1.062 0.2159,1.854 0.648,2.376 4.566,0.3442 7.195,1.524 7.886,3.541 0.6908,2.016 0.1262,4.964 -1.694,8.843 l -27.35,59.18 h -0.6624 l -18.42,-38.15 10.53,-20.03 c 1.671,-3.441 3.537,-6.373 5.598,-8.796 2.06,-2.424 4.913,-3.955 8.557,-4.595 0.4319,-0.5219 0.6479,-1.314 0.648,-2.376 -1e-4,-1.062 -0.2161,-1.854 -0.648,-2.376 -1.806,0.0751 -3.594,0.1411 -5.364,0.198 -1.77,0.0571 -3.486,0.0871 -5.148,0.09 -1.59,-0.003 -3.234,-0.0329 -4.932,-0.09 -1.698,-0.0569 -3.846,-0.1229 -6.444,-0.198 -0.4321,0.5221 -0.6481,1.314 -0.648,2.376 -8e-5,1.062 0.2159,1.854 0.648,2.376 z" id="path3006"/>
  </g>
</g></svg>
